<?xml version="1.0" encoding="utf-8"?>
<!-- Generator: Adobe Illustrator 26.0.2, SVG Export Plug-In . SVG Version: 6.00 Build 0)  -->
<svg version="1.1" id="Layer_1" xmlns="http://www.w3.org/2000/svg" xmlns:xlink="http://www.w3.org/1999/xlink" x="0px" y="0px"
	 viewBox="0 0 1138 733" style="enable-background:new 0 0 1138 733;" xml:space="preserve">
<style type="text/css">
	.st0{fill:#3FBED1;}
</style>
<g>
	<path class="st0" d="M99.6,23.3c20.6-6.6,43.3-6,63.6,1.6c22.6,8.3,41.8,25.4,52.7,46.8c10.4,19.9,13.4,43.4,8.7,65.3
		c-3.9,19-13.9,36.5-27.8,50c14.8,14.6,25.2,33.5,28.6,54.1c3.6,21.1,0.1,43.5-10,62.4c-12.8,24.4-36.4,42.9-63.3,49.1
		c-15.7,3.8-32.4,3.7-48.1-0.5c-27.5-7-51.2-27-63.2-52.6c-9.1-18.7-11.6-40.5-7.6-60.9c3.7-19.6,14-37.7,28.2-51.6
		c-18.8-18.1-30.2-43.8-29.9-70C31,99,36.2,81,45.6,65.6C57.8,45.7,77.2,30.2,99.6,23.3 M123,73.8c-10.5,1.6-20.4,7.1-27.2,15.3
		c-7.1,8.3-10.5,19.4-9.9,30.2c0.7,10.5,5.2,20.7,12.8,28c8,7.8,19,12.6,30.3,12.4c15.9,0.3,31.3-9.4,38.4-23.5
		c3.9-8,5.8-17.2,4.2-26c-1.8-13.1-10.2-25.1-21.9-31.4C141.7,74.2,132.1,72.6,123,73.8 M122.8,214.9c-16.8,2.3-31.6,15.4-35.6,31.9
		c-1.2,5.2-2,10.7-1,16c1.4,14.4,11.1,27.5,24.1,33.7c10.1,4.8,22.1,5.5,32.6,1.9c15.3-5,27-19.4,28.8-35.5
		c1.9-13.6-3.5-27.9-13.7-37.1C148.8,217.1,135.4,213.1,122.8,214.9L122.8,214.9z"/>
	<path class="st0" d="M336.6,19c21.6-1.5,43.7,4.5,61.5,16.8c26.1,17.7,42.9,48.6,42.5,80.2c0,47.7,0,95.4,0,143.1
		c0,20.2-7,40.2-18.9,56.4c-13.7,18.7-34.1,32.3-56.7,37.4c-14.4,3.4-29.6,3.3-44,0c-23.6-5.3-44.8-19.9-58.5-39.8
		c-11.4-16.3-17.4-36.2-17.3-56c-0.1-48-0.2-96,0.1-144.1c0.8-26.9,13.5-53.1,34-70.6C295.2,28.7,315.6,20.3,336.6,19 M335.6,74
		c-10.4,1.8-20.1,7.6-26.6,16c-6.2,7.6-9.1,17.3-9.2,27c0,47,0,94,0,141c0.3,9.5,3.4,19.1,9.5,26.5c8,10.1,20.8,16.3,33.7,16.2
		c13.5,0.1,26.8-6.6,34.7-17.5c5.7-7.4,8.4-16.8,8.5-26.1c0-45.3,0-90.7,0-136c0.2-7.1-0.6-14.2-3.3-20.8
		C375.7,82,355,70.3,335.6,74z"/>
	<path class="st0" d="M1004.6,19.2c29.1-1.7,58.4,10.8,77.5,32.7c11.8,13.2,19.9,29.6,23,47c2.4,11.9,1.4,24.1,1.6,36.1
		c0,35.3,0,70.6,0,106c-0.1,12.7,0.7,25.6-2.3,38.1c-6.1,28-25.2,52.7-50.7,65.6c-28.5,15-64.5,14.3-92.5-1.6
		c-28.8-15.9-48.4-47.1-49.8-80.1c-0.4-16.7,0.1-33.4-0.3-50c-0.2-32,0.2-64,0.1-96c0-19.1,5.6-38.1,16.1-54
		C944.3,37.3,973.8,20.1,1004.6,19.2 M1004,73.9c-10,1.3-19.6,6.1-26.5,13.6c-7.6,7.8-11.5,18.8-11.7,29.6c0,46.7,0,93.4,0,140
		c0.1,9.6,3,19.4,9.1,27c8,10.4,20.9,17.1,34.1,16.7c13.9,0.4,27.6-6.9,35.4-18.3c5.4-7.3,7.8-16.5,7.9-25.5c0-42.3,0-84.7,0-127
		c-0.1-8.7,0.6-17.6-2-26.1C1044.6,84.6,1024,71.2,1004,73.9L1004,73.9z"/>
	<path class="st0" d="M565.5,19.8c20.2-3.5,41.5-0.4,59.9,8.7c31.4,15.3,53.4,48.4,54.3,83.5c0,49.4,0,98.7,0,148.1
		c-0.4,34.6-21.4,67.7-52,83.6c-29,15.7-66.2,15-94.6-1.8c-25.6-14.7-43.7-41.5-47.8-70.7c-1.3-8.3-1-16.7-1-25.1
		c0.1-31-0.5-62,0-93.1c0-12.3,0-24.6,0-37c-0.1-22.5,8-44.8,22.4-62.1C521.4,36,542.7,23.7,565.5,19.8 M576.3,73.5
		c-19.9,2.3-36.8,20.3-37.2,40.5c-0.1,45.7,0,91.3,0,137c0,6.3-0.5,12.8,1.7,18.9c4.5,15,17.8,27,33.2,29.7
		c13.8,2.8,28.7-1.9,38.5-11.9c8.1-8,12.7-19.3,12.7-30.7c0-47,0-94,0-141c0-17.8-12-34.8-29-40.5C590,72.8,583.1,73.3,576.3,73.5
		L576.3,73.5z"/>
	<path class="st0" d="M784.1,20.1c22.1-2.8,45.2,2.5,64,14.5C869.5,48,885.3,70.1,891,94.7c2,8.3,2.8,16.8,2.6,25.2c0,46,0,92,0,138
		c0,16.8-4.3,33.6-12.6,48.2c-9.6,17.1-24.6,31.2-42.2,39.9c-14.4,7.1-30.7,10.4-46.8,9.8c-21.7-0.6-43-9-59.5-23.2
		c-21.3-18-34.5-45.6-34.3-73.6c0-42,0-84,0-126c0.1-12.7-0.8-25.6,2.4-38c7.4-32.9,33.1-60.9,65.3-71
		C771.8,22.2,778,20.8,784.1,20.1 M787.1,74.9c-18.8,3.7-33.7,20.9-34.3,40.1c-0.1,48,0,96-0.1,144.1c0.2,17.8,12.6,34.7,29.6,40
		c6.3,2.5,13.2,1.5,19.8,1.6c15.8-1.9,29.8-13.8,34.7-28.9c2.4-7,2.5-14.5,2.3-21.8c0-44.4,0-88.7,0-133.1c-0.2-13.1-6.5-26.1-17-34
		C812.3,75.4,799.2,72.2,787.1,74.9L787.1,74.9z"/>
	<path class="st0" d="M444.6,334.3c11.2,0,22.4-0.1,33.6,0c-0.5,15.7,1.8,31.9-3.1,47.1c-4.6,12.9-17.6,20.8-30.5,23.2
		c-0.1-4,0-8.1-0.1-12.1c5.5-1.8,11-4.6,14.2-9.5c3.1-4.8,4.1-10.5,4.6-16.1c-6.3-0.1-12.5,0-18.8,0
		C444.6,355.9,444.6,345.1,444.6,334.3L444.6,334.3z"/>
</g>
<path d="M1031.3,521.6c15.8-4.7,32.9-4.5,48.9-0.5c11.3,2.8,21.8,8.5,30.1,16.7c-9,10.3-17.7,20.9-26.9,31
	c-5.9-7.8-15.8-11.3-25.3-12.3c-8.5-0.5-17.9,1.3-24.2,7.3c-5.3,4.8-6.3,13.3-3.2,19.6c2.3,4.8,7.4,7.4,12,9.8
	c10,4.5,20.6,7.2,30.9,10.6c11,4,21.7,10.1,28.6,19.8c7.8,10.2,9.1,23.8,8.2,36.3c-1.1,16.2-8.9,32.2-22.1,41.9
	c-13.4,10.1-30.7,13.7-47.2,13.7c-14.6-0.3-29.4-3.4-42-10.9c-6.1-3.4-11.4-8-16.6-12.6c5.7-7.2,11.9-13.9,17.8-20.9
	c3.5-3.8,6.6-8.1,10.4-11.7c11,16.6,35.6,23.2,52.8,12.5c8.6-5.1,10.6-17.9,4.1-25.4c-6.2-6.6-15-9.6-23.3-12.7
	c-9.7-3.7-19.9-5.8-29-11c-12.6-6.2-23.5-17.7-26-31.8c-2.6-15.1-0.6-31.4,7.9-44.4C1004.8,534.4,1017.5,525.7,1031.3,521.6
	L1031.3,521.6z"/>
<path d="M347.1,519c19.8-2.3,40.5-0.4,58.7,8.2c14.6,6.7,27.3,17.6,36,31.1c11.3,17.3,16.3,38.1,16,58.6
	c0.3,21.9-5.6,44.2-18.6,62.1c-11.2,15.6-28,26.8-46.4,32.2c-17.9,5.2-37.1,5.7-55.3,1.5c-16.4-3.7-31.8-11.7-43.6-23.7
	c-14.2-14-22.9-33.1-26-52.7c-2.3-16-2-32.5,1.8-48.3c4.7-19,15-37,30.4-49.5C313.4,527.8,330,521.1,347.1,519 M354,556.8
	c-15.3,1.8-29.4,11-37.4,24.1c-8.8,14.2-10.8,31.8-8.5,48.1c2.2,14.8,9.6,29.2,21.9,38.1c14.4,10.6,34.1,12.6,50.9,7
	c13.5-4.5,24.6-15.1,30.3-28c7-15.6,7.8-33.7,3.2-50.1c-3.7-13.2-12-25.4-24-32.3C379.5,557.1,366.4,555.4,354,556.8L354,556.8z"/>
<path d="M31.5,522.7c13,0,26,0,39,0c0.1,23.3,0,46.7,0,70c25.3,0,50.6,0,75.8,0c0-23.3-0.1-46.7,0-70c13.1,0,26.1,0,39.1,0
	c0.1,62.6,0,125.3,0.1,187.9c-13.1,0-26.2,0-39.3,0c0.1-27,0-54,0-81.1c-25.3-0.1-50.5,0-75.8,0c0,27,0,54.1,0,81.1
	c-13,0-26,0-39.1,0C31.5,648,31.3,585.3,31.5,522.7L31.5,522.7z"/>
<path d="M649.3,522.7c13,0,26.1,0,39.1,0c0,39.4,0,78.8,0,118.2c-0.4,17.5-5.1,35.5-16.2,49.3c-11.1,14.2-28.4,22.4-46.1,24.5
	c-19.3,2.3-39.9-0.3-56.4-11.1c-14-8.9-23.5-23.7-27.6-39.5c-4.6-16-3.1-32.7-3.3-49.1c0-30.7,0-61.5,0-92.2c13-0.1,26.1,0,39.2,0
	c0,36.8,0,73.6,0,110.3c-0.3,11.8,2.4,24.4,10.8,33.2c10.6,11.8,29.8,14.3,43.2,5.7c11.5-7.1,17.2-20.9,17.4-34
	C649.4,599.6,649.2,561.1,649.3,522.7z"/>
<path d="M778.8,526c-0.1-1.4-0.1-3.9,2.1-3.3c23,0,46.1,0,69.1,0c15.9,0.6,32.8,3.1,45.8,13.1c12.9,9.8,18.9,26.4,18.7,42.2
	c0.6,15.8-4.4,32.6-16.5,43.2c-6.1,5.5-13.8,8.4-21.7,10.3c15.1,26.3,30.1,52.6,45,79c-15.7,0-31.3,0.1-47,0
	c-12.4-25-24.6-50-37-74.9c-6.3,0-12.7,0-19,0c0.1,25,0,49.9,0,74.9c-13.1,0.1-26.2,0.1-39.4,0C778.8,649,778.9,587.5,778.8,526
	 M818.3,558.2c-0.3,14.1,0,28.2-0.2,42.3c11-0.1,22,0.3,32.9-0.3c7.1-0.4,15-2.4,19.4-8.5c3.8-5.3,3.8-12.5,2.6-18.7
	c-1.9-7.9-9.7-12.9-17.3-14.1c-12.2-1.7-24.6-1-36.9-1.1L818.3,558.2z"/>
</svg>
